<svg width="33" height="42" viewBox="0 0 33 42" fill="none" xmlns="http://www.w3.org/2000/svg">
<path d="M16.3885 2.61523C16.4666 2.92773 17.7166 9.95898 17.7166 12.6152C17.7166 16.7559 15.5291 19.6465 12.326 20.8184L13.3416 39.4121C13.3416 40.5059 12.4822 41.3652 11.4666 41.3652H6.46661C5.37286 41.3652 4.51349 40.5059 4.59161 39.4121L5.52911 20.8184C2.32599 19.6465 0.216614 16.7559 0.216614 12.6152C0.216614 9.95898 1.38849 2.92773 1.46661 2.61523C1.70099 0.974609 4.98224 0.974609 5.21661 2.69336V13.709C5.29474 13.9434 6.38849 13.9434 6.46661 13.709C6.54474 11.7559 7.01349 2.84961 7.09161 2.61523C7.32599 0.974609 10.5291 0.974609 10.7635 2.61523C10.8416 2.84961 11.3104 11.7559 11.3885 13.709C11.4666 13.9434 12.5604 13.9434 12.6385 13.709V2.69336C12.8729 0.974609 16.1541 0.974609 16.3885 2.61523ZM25.7635 24.8809C13.4979 15.3496 24.3572 1.36523 30.8416 1.36523C31.8572 1.36523 32.7166 2.22461 32.7166 3.24023V39.4902C32.7166 40.584 31.8572 41.3652 30.8416 41.3652H26.4666C25.3729 41.3652 24.4354 40.4277 24.5916 39.334L25.7635 24.8809Z" fill="#FEA116"/>
</svg>
