<svg width="55" height="49" viewBox="0 0 55 49" fill="none" xmlns="http://www.w3.org/2000/svg">
<path d="M47.25 30H19.7812L20.4375 33H45.5625C46.9688 33 48.0938 34.4062 47.7188 35.8125L47.25 38.0625C49.0312 38.9062 50.25 40.6875 50.25 42.75C50.25 45.75 47.8125 48.0938 44.9062 48C42.0938 48 39.75 45.75 39.75 42.9375C39.6562 41.4375 40.3125 40.0312 41.25 39H21.6562C22.5938 40.0312 23.25 41.3438 23.25 42.75C23.25 45.75 20.7188 48.1875 17.7188 48C15 47.9062 12.8438 45.75 12.75 43.125C12.5625 40.9688 13.6875 39.1875 15.375 38.25L8.71875 6H2.25C0.9375 6 0 5.0625 0 3.75V2.25C0 1.03125 0.9375 0 2.25 0H11.8125C12.8438 0 13.7812 0.84375 14.0625 1.875L14.9062 6H51.6562C53.1562 6 54.1875 7.40625 53.9062 8.8125L49.5 28.3125C49.2188 29.3438 48.2812 30 47.25 30ZM38.25 15.75H33.75V12C33.75 11.25 33 10.5 32.25 10.5H30.75C29.9062 10.5 29.25 11.25 29.25 12V15.75H24.75C23.9062 15.75 23.25 16.5 23.25 17.25V18.75C23.25 19.5938 23.9062 20.25 24.75 20.25H29.25V24C29.25 24.8438 29.9062 25.5 30.75 25.5H32.25C33 25.5 33.75 24.8438 33.75 24V20.25H38.25C39 20.25 39.75 19.5938 39.75 18.75V17.25C39.75 16.5 39 15.75 38.25 15.75Z" fill="#FEA116"/>
</svg>
