<svg width="39" height="49" viewBox="0 0 39 49" fill="none" xmlns="http://www.w3.org/2000/svg">
<path d="M19.4062 2.5C19.5 2.875 21 11.3125 21 14.5C21 19.4688 18.375 22.9375 14.5312 24.3438L15.75 46.6562C15.75 47.9688 14.7188 49 13.5 49H7.5C6.1875 49 5.15625 47.9688 5.25 46.6562L6.375 24.3438C2.53125 22.9375 0 19.4688 0 14.5C0 11.3125 1.40625 2.875 1.5 2.5C1.78125 0.53125 5.71875 0.53125 6 2.59375V15.8125C6.09375 16.0938 7.40625 16.0938 7.5 15.8125C7.59375 13.4688 8.15625 2.78125 8.25 2.5C8.53125 0.53125 12.375 0.53125 12.6562 2.5C12.75 2.78125 13.3125 13.4688 13.4062 15.8125C13.5 16.0938 14.8125 16.0938 14.9062 15.8125V2.59375C15.1875 0.53125 19.125 0.53125 19.4062 2.5ZM30.6562 29.2188C15.9375 17.7812 28.9688 1 36.75 1C37.9688 1 39 2.03125 39 3.25V46.75C39 48.0625 37.9688 49 36.75 49H31.5C30.1875 49 29.0625 47.875 29.25 46.5625L30.6562 29.2188Z" fill="#FEA116"/>
</svg>
