<svg width="38" height="38" viewBox="0 0 38 38" fill="none" xmlns="http://www.w3.org/2000/svg">
<path d="M0 19C0 8.50659 8.50659 0 19 0C29.4934 0 38 8.50659 38 19V38H0V19Z" fill="#FDAA2D"/>
<g clip-path="url(#clip0_2_160)">
<path fill-rule="evenodd" clip-rule="evenodd" d="M19.5 25.25C21.5711 25.25 23.25 23.5711 23.25 21.5C23.25 19.4289 21.5711 17.75 19.5 17.75C17.4289 17.75 15.75 19.4289 15.75 21.5C15.75 23.5711 17.4289 25.25 19.5 25.25ZM19.5 24C20.8807 24 22 22.8807 22 21.5C22 20.1193 20.8807 19 19.5 19C18.1193 19 17 20.1193 17 21.5C17 22.8807 18.1193 24 19.5 24Z" fill="white"/>
<path d="M23.25 17.125C22.9048 17.125 22.625 17.4048 22.625 17.75C22.625 18.0952 22.9048 18.375 23.25 18.375C23.5952 18.375 23.875 18.0952 23.875 17.75C23.875 17.4048 23.5952 17.125 23.25 17.125Z" fill="white"/>
<path fill-rule="evenodd" clip-rule="evenodd" d="M13.0337 16.6725C12.625 17.4747 12.625 18.5248 12.625 20.625V22.375C12.625 24.4752 12.625 25.5253 13.0337 26.3274C13.3933 27.0331 13.9669 27.6068 14.6725 27.9663C15.4747 28.375 16.5248 28.375 18.625 28.375H20.375C22.4752 28.375 23.5253 28.375 24.3274 27.9663C25.0331 27.6068 25.6068 27.0331 25.9663 26.3274C26.375 25.5253 26.375 24.4752 26.375 22.375V20.625C26.375 18.5248 26.375 17.4747 25.9663 16.6725C25.6068 15.9669 25.0331 15.3933 24.3274 15.0337C23.5253 14.625 22.4752 14.625 20.375 14.625H18.625C16.5248 14.625 15.4747 14.625 14.6725 15.0337C13.9669 15.3933 13.3933 15.9669 13.0337 16.6725ZM20.375 15.875H18.625C17.5543 15.875 16.8264 15.876 16.2638 15.9219C15.7158 15.9667 15.4355 16.0479 15.24 16.1475C14.7696 16.3872 14.3872 16.7696 14.1475 17.24C14.0479 17.4355 13.9667 17.7158 13.9219 18.2638C13.876 18.8264 13.875 19.5543 13.875 20.625V22.375C13.875 23.4458 13.876 24.1736 13.9219 24.7362C13.9667 25.2843 14.0479 25.5645 14.1475 25.76C14.3872 26.2304 14.7696 26.6128 15.24 26.8525C15.4355 26.9521 15.7158 27.0333 16.2638 27.0781C16.8264 27.124 17.5543 27.125 18.625 27.125H20.375C21.4458 27.125 22.1736 27.124 22.7362 27.0781C23.2843 27.0333 23.5645 26.9521 23.76 26.8525C24.2304 26.6128 24.6128 26.2304 24.8525 25.76C24.9521 25.5645 25.0333 25.2843 25.0781 24.7362C25.124 24.1736 25.125 23.4458 25.125 22.375V20.625C25.125 19.5543 25.124 18.8264 25.0781 18.2638C25.0333 17.7158 24.9521 17.4355 24.8525 17.24C24.6128 16.7696 24.2304 16.3872 23.76 16.1475C23.5645 16.0479 23.2843 15.9667 22.7362 15.9219C22.1736 15.876 21.4458 15.875 20.375 15.875Z" fill="white"/>
</g>
<defs>
<clipPath id="clip0_2_160">
<rect width="15" height="15" fill="white" transform="translate(12 14)"/>
</clipPath>
</defs>
</svg>
