<svg width="33" height="29" viewBox="0 0 33 29" fill="none" xmlns="http://www.w3.org/2000/svg">
<path d="M29.41 14.09C31.035 14.09 32.41 15.465 32.41 17.09C32.41 18.7775 31.035 20.09 29.41 20.09H3.41003C1.72253 20.09 0.410034 18.7775 0.410034 17.09C0.410034 15.465 1.72253 14.09 3.41003 14.09H29.41ZM30.41 22.09C30.91 22.09 31.41 22.59 31.41 23.09V24.09C31.41 26.34 29.5975 28.09 27.41 28.09H5.41003C3.16003 28.09 1.41003 26.34 1.41003 24.09V23.09C1.41003 22.59 1.84753 22.09 2.41003 22.09H30.41ZM4.03503 12.09C1.91003 12.09 0.660034 9.4025 1.84753 7.4025C4.41003 3.34 9.91003 0.152496 16.41 0.0899963C22.8475 0.152496 28.41 3.34 30.91 7.4025C32.0975 9.4025 30.8475 12.09 28.7225 12.09H4.03503ZM24.41 5.09C23.8475 5.09 23.41 5.59 23.41 6.09C23.41 6.6525 23.8475 7.09 24.41 7.09C24.91 7.09 25.41 6.6525 25.41 6.09C25.41 5.59 24.91 5.09 24.41 5.09ZM16.41 3.09C15.8475 3.09 15.41 3.59 15.41 4.09C15.41 4.6525 15.8475 5.09 16.41 5.09C16.91 5.09 17.41 4.6525 17.41 4.09C17.41 3.59 16.91 3.09 16.41 3.09ZM8.41003 5.09C7.84753 5.09 7.41003 5.59 7.41003 6.09C7.41003 6.6525 7.84753 7.09 8.41003 7.09C8.91003 7.09 9.41003 6.6525 9.41003 6.09C9.41003 5.59 8.91003 5.09 8.41003 5.09Z" fill="#FEA116"/>
</svg>
