<svg width="27" height="34" viewBox="0 0 27 34" fill="none" xmlns="http://www.w3.org/2000/svg">
<path d="M13.5664 2.09C13.6289 2.34 14.6289 7.965 14.6289 10.09C14.6289 13.4025 12.8789 15.715 10.3164 16.6525L11.1289 31.5275C11.1289 32.4025 10.4414 33.09 9.62891 33.09H5.62891C4.75391 33.09 4.06641 32.4025 4.12891 31.5275L4.87891 16.6525C2.31641 15.715 0.628906 13.4025 0.628906 10.09C0.628906 7.965 1.56641 2.34 1.62891 2.09C1.81641 0.777496 4.44141 0.777496 4.62891 2.1525V10.965C4.69141 11.1525 5.56641 11.1525 5.62891 10.965C5.69141 9.4025 6.06641 2.2775 6.12891 2.09C6.31641 0.777496 8.87891 0.777496 9.06641 2.09C9.12891 2.2775 9.50391 9.4025 9.56641 10.965C9.62891 11.1525 10.5039 11.1525 10.5664 10.965V2.1525C10.7539 0.777496 13.3789 0.777496 13.5664 2.09ZM21.0664 19.9025C11.2539 12.2775 19.9414 1.09 25.1289 1.09C25.9414 1.09 26.6289 1.7775 26.6289 2.59V31.59C26.6289 32.465 25.9414 33.09 25.1289 33.09H21.6289C20.7539 33.09 20.0039 32.34 20.1289 31.465L21.0664 19.9025Z" fill="#FEA116"/>
</svg>
