<svg width="48" height="48" viewBox="0 0 48 48" fill="none" xmlns="http://www.w3.org/2000/svg">
<path d="M18 19.5V30C18 31.6875 16.5938 33 15 33H13.5C10.125 33 7.5 30.375 7.5 27V22.5C7.5 19.2188 10.125 16.5 13.5 16.5H15C16.5938 16.5 18 17.9062 18 19.5ZM34.5 33H33C31.3125 33 30 31.6875 30 30V19.5C30 17.9062 31.3125 16.5 33 16.5H34.5C37.7812 16.5 40.5 19.2188 40.5 22.5V27C40.5 30.375 37.7812 33 34.5 33ZM24 0C37.3125 0 47.5312 11.1562 48 24V39.5625C48 44.25 44.1562 48 39.4688 48H22.5C19.9688 48 18 46.0312 18 43.5C18 41.0625 19.9688 39 22.5 39H25.5C27.9375 39 30 41.0625 30 43.5H39.4688C41.7188 43.5 43.5 41.8125 43.5 39.5625C43.5 39.5625 43.4062 24.2812 43.4062 24H43.5C43.5 13.3125 34.6875 4.5 24 4.5C13.2188 4.5 4.5 13.3125 4.5 24V25.5C4.5 26.3438 3.75 27 3 27H1.5C0.65625 27 0 26.3438 0 25.5V24C0.375 11.1562 10.5938 0 24 0Z" fill="#FEA116"/>
</svg>
