<svg width="32" height="29" viewBox="0 0 32 29" fill="none" xmlns="http://www.w3.org/2000/svg">
<path d="M29 14.6211C30.625 14.6211 32 15.9961 32 17.6211V25.6211C32 27.3086 30.625 28.6211 29 28.6211H21C19.3125 28.6211 18 27.3086 18 25.6211V10.6211C18 5.12109 22.4375 0.621094 28 0.621094H28.5C29.3125 0.621094 30 1.30859 30 2.12109V5.12109C30 5.99609 29.3125 6.62109 28.5 6.62109H28C25.75 6.62109 24 8.43359 24 10.6211V14.6211H29ZM11 14.6211C12.625 14.6211 14 15.9961 14 17.6211V25.6211C14 27.3086 12.625 28.6211 11 28.6211H3C1.3125 28.6211 0 27.3086 0 25.6211V10.6211C0 5.12109 4.4375 0.621094 10 0.621094H10.5C11.3125 0.621094 12 1.30859 12 2.12109V5.12109C12 5.99609 11.3125 6.62109 10.5 6.62109H10C7.75 6.62109 6 8.43359 6 10.6211V14.6211H11Z" fill="#FEA116"/>
</svg>
